PathFileType	4	(X/Y/Z)	69_2_13_p0_0-200_filt_butterworth.trc
DataRate	CameraRate	NumFrames	NumMarkers	Units	OrigDataRate	OrigDataStartFrame	OrigNumFrames
53.0	53.0	5	27	m	53.0	75	200
Frame#	Time	RHip			RKnee			RAnkle			RBigToe			RSmallToe			RHeel			LHip			LKnee			LAnkle			LBigToe			LSmallToe			LHeel			Neck			Head			Nose			RShoulder			RElbow			RWrist			RThumb			RIndex			RPinky			LShoulder			LElbow			LWrist			LThumb			LIndex			LPinky			
		X1	Y1	Z1	X2	Y2	Z2	X3	Y3	Z3	X4	Y4	Z4	X5	Y5	Z5	X6	Y6	Z6	X7	Y7	Z7	X8	Y8	Z8	X9	Y9	Z9	X10	Y10	Z10	X11	Y11	Z11	X12	Y12	Z12	X13	Y13	Z13	X14	Y14	Z14	X15	Y15	Z15	X16	Y16	Z16	X17	Y17	Z17	X18	Y18	Z18	X19	Y19	Z19	X20	Y20	Z20	X21	Y21	Z21	X22	Y22	Z22	X23	Y23	Z23	X24	Y24	Z24	X25	Y25	Z25	X26	Y26	Z26	X27	Y27	Z27	
75	1.4150943396226414	0.29859288615626517	0.5154845001481522	0.472014608672397	0.25308655504603483	0.5739346359921876	0.9271408526144187	0.23011019103863664	0.572054061997525	1.3135060962385974	0.2629290270483652	0.4342539233923083	1.3335742636552943	0.32225803235978623	0.46914957401223967	1.3319238152980772	0.18285289689998424	0.6562743943239034	1.3853047931545848	0.12011442106455227	0.4463353181782942	0.47205189037304096	0.06072766035710489	0.5136290818933508	0.9126855148450632	0.030973260380028005	0.5778778833153707	1.3369746266115405	0.11710325078911957	0.3608136407042888	1.3063974828943017	0.057231490972960146	0.4029553005974182	1.3150431591391811	0.03473725881688531	0.6047113799840039	1.3860859281990852	0.21650297006557023	0.5269444970644394	-0.003871182883549938	0.24920959047941643	0.47018900976914724	-0.25089483919485955	0.2573307151272788	0.42831216662794225	-0.11963412593558623	0.3641859324909603	0.5447179704557418	0.07415070870969251	0.37070511592426797	0.5967375869737923	0.32799361975495184	0.37043397699337144	0.516524196196029	0.5588238707724295	0.34697117142534406	0.44221279763415006	0.6508009617033819	0.34933774460620654	0.4388116294871311	0.6810658680870306	0.3521744024115042	0.531328279204485	0.6972147503124124	0.06611864962502924	0.48643764754425994	0.051590667881068385	0.03365739576199771	0.4423995528562934	0.29602701603474146	0.01888743586976621	0.39234188319721575	0.5023307052204282	0.04139971570493498	0.3939701383615828	0.602244547762309	0.02932181079590341	0.3499504545582013	0.6317921970255418	0.011728780253812469	0.3576888835633824	0.6182405266177062
76	1.4339622641509433	0.2983673814644683	0.5204330066896725	0.47235350946513255	0.2539730836159651	0.5806934630234579	0.9304992312268139	0.22998728997521378	0.5723696673165616	1.3134856919698001	0.2618279045901057	0.43304640460429356	1.3332751354727965	0.32228927243698247	0.4690758262613562	1.3319098511880276	0.1827773759682278	0.6568953203574405	1.3853567856394582	0.11941533122750675	0.45130753008919927	0.4711024243533902	0.06068694170723017	0.5136871904911239	0.9126999159142399	0.030690835453290686	0.5777537546450825	1.3396108355590852	0.1181790419672085	0.3621113764535138	1.3068316772401385	0.057237513332781716	0.40288950349189556	1.3152311576825333	0.03483837382241053	0.6050152874244815	1.3860270387166262	0.21657490668522406	0.5258727887716397	-0.0037402425307093753	0.2483929794000989	0.46961050652713815	-0.24957469445378705	0.25810824649858544	0.417101709988513	-0.11994207752689469	0.3642866304599317	0.5444933758999786	0.07381201021100435	0.37069376101809737	0.5963643566539162	0.3276558617070174	0.3705146417041516	0.5165657078152623	0.5589311863783911	0.3467801655446362	0.4421359501934078	0.6522390895413434	0.3514313821558637	0.4358369188413034	0.6804840848922415	0.3545051506097532	0.5332707437113238	0.697017991893594	0.06611170415968172	0.4864882633688414	0.05144856136636802	0.0336847562665387	0.4422865298402032	0.29602433394475247	0.018692691824746054	0.3923437832402989	0.5022258822394272	0.041569467652337606	0.3935952146091482	0.6020671276878725	0.030522827870754506	0.3438881787957562	0.6274247549733183	0.012253834227991317	0.3531492638092937	0.6175620296867499
77	1.4528301886792452	0.29819175605616804	0.5212252553998613	0.472116910673649	0.2549034000011077	0.5853907914271819	0.9315887364315099	0.2300104331323418	0.5727900690924873	1.31360644592954	0.2602418864145053	0.43166829103744603	1.3330592994470138	0.3222942824749088	0.46913379495074914	1.3319366155035655	0.18277881958497688	0.6571783235094396	1.3859049498571134	0.11895460188087104	0.4543937070870335	0.4697403224265483	0.06065983045908083	0.5137270810691661	0.9127435548891766	0.030451406359650844	0.577448098205025	1.3426873584350443	0.11936157520879682	0.36300389403591166	1.307093888181855	0.05726267363918797	0.40283259807539856	1.315246704598362	0.034737769950597644	0.6051195047422873	1.385986073045256	0.21683310830328933	0.5224101743425059	-0.004167262448356332	0.24813928931626775	0.4694092576573605	-0.2492875062753273	0.2587011511356164	0.40814405062019715	-0.1207000044116724	0.36432712340080675	0.5442425685753681	0.07437660432816595	0.37069945017736416	0.5958124364578925	0.32782355834875176	0.3705639053048581	0.5165697866308863	0.5590071138665224	0.34643635266089157	0.44205486887993284	0.6538340813647915	0.3521385985799674	0.43358078101472364	0.6809115111059547	0.35789721229461413	0.5318984263411863	0.6964421398879785	0.06611610105098399	0.4864988561842632	0.051325532512532544	0.033701989164781135	0.4419050766410147	0.29599014931599377	0.018173051771313477	0.39255316430124565	0.5025130506909942	0.041787899129288354	0.3931302576483133	0.6018920417225773	0.03167058217048324	0.3376429502784071	0.6239524738438554	0.013641443130528943	0.3489023504547654	0.6175267344097919
78	1.471698113207547	0.298115072242531	0.5205302697308127	0.4719097100159829	0.2553871271600721	0.5867152159890939	0.9309752159926978	0.23002924360584057	0.573087720715824	1.3137267835883781	0.25910315616535434	0.4307972439066831	1.3329427328552674	0.3222462508368882	0.4692338824926596	1.3319798879852296	0.1827715158433452	0.65728154486916	1.388241579813555	0.11872847474199597	0.45503123574077897	0.46946357385299137	0.06068148941936616	0.5137400874449692	0.9127729603841597	0.03029262770973854	0.5770932085005126	1.343907570381082	0.12011421632239616	0.36306751929530806	1.3070284435860213	0.05731407910843272	0.40281825653024184	1.3152193220961983	0.03429421715988959	0.6050298499134581	1.3860483937610648	0.21722213012409247	0.5175406406033998	-0.004404235575212808	0.24816184195190083	0.4694431765872096	-0.24940314811314618	0.25897076527774654	0.4043515077813052	-0.12159459690619781	0.3642844665585602	0.5440534074896425	0.07578147002220956	0.3707018335111559	0.5955537463793416	0.32890612640026423	0.3705680884846767	0.5164536498665916	0.5589146980141448	0.34618751915967283	0.4417665510533034	0.655362266677136	0.3522737946257023	0.43133487812861143	0.6812967269762676	0.36154255221559356	0.5260283540837308	0.6952222917367924	0.06609688379466058	0.4864580991095667	0.05164484026392025	0.03332945223725298	0.4414896022097961	0.29590162034749334	0.017782328398688152	0.39260282633229904	0.5034026093314985	0.04189082504282561	0.39282303108753625	0.6020289004640507	0.03288877268796668	0.334127430893031	0.6236492044689715	0.015974250379663137	0.34490234171295614	0.6177829848063738
79	1.490566037735849	0.2980897518820719	0.5200695229362462	0.4718569332189635	0.25545857511860803	0.5864151659662117	0.9302826598646793	0.2296964623516898	0.5729376321854519	1.3136769843984484	0.25875029555173196	0.43055655378041996	1.3329205224895824	0.3221687735880687	0.4693013592562157	1.3320161894729843	0.18190981602362027	0.6586093709092578	1.3921668999841643	0.11858040350778971	0.45469599505172276	0.47054764114182335	0.060732940632275134	0.5137400759945567	0.9127761863955381	0.030068024897717503	0.5764828989409624	1.3429713372941667	0.12019691427352758	0.36286066566247377	1.3068814368127017	0.057363382428844076	0.4028428523608565	1.315208120217226	0.03382482896503934	0.6046056766809456	1.3868105245044096	0.2175664217520083	0.513848889525674	-0.003825333977699244	0.24819158436581337	0.4695240858840298	-0.24949864043524392	0.25908361934063373	0.4043114793563574	-0.1223209820342576	0.36422620287436147	0.543954241319366	0.07695220806896828	0.3706849338033906	0.5956628047353398	0.3302642871162934	0.37052617828711315	0.5163573167415583	0.5588513664717016	0.34631967573162425	0.4413605638752592	0.6556023471754067	0.3524102902742919	0.42998086378041356	0.6812703293427667	0.3639032845898342	0.5200960046879868	0.694048274018332	0.06602956826486552	0.4864165006284996	0.052680144999716065	0.03222871743529683	0.4412859892349263	0.2958684024195968	0.01838674617390345	0.39168470083468604	0.5045995219110501	0.04169612591538413	0.39282124878413854	0.6028611923743619	0.0348951436001868	0.3330702086820543	0.6259667624778211	0.01866314728513336	0.3407587204264353	0.6177193780351926
